<?xml version="1.0" encoding="iso-8859-1"?>
<!-- Uploaded to: SVG Repo, www.svgrepo.com, Generator: SVG Repo Mixer Tools -->
<!DOCTYPE svg PUBLIC "-//W3C//DTD SVG 1.1//EN" "http://www.w3.org/Graphics/SVG/1.1/DTD/svg11.dtd">
<svg height="800px" width="800px" version="1.1" id="Capa_1" xmlns="http://www.w3.org/2000/svg" xmlns:xlink="http://www.w3.org/1999/xlink" 
	 viewBox="0 0 446.117 446.117" xml:space="preserve">
<g>
	<g>
		<path style="fill:#C1272D;" d="M409.249,154.871c5.81,14.43,10.43,29.24,10.04,44.77c-0.45,18.24-4.37,35.92-12.14,52.76
			c-13.68,29.68-32.21,56.2-52.76,81.3c-11.93,14.59-25.14,28.17-38.25,41.75c-15.55,16.12-31.62,31.76-47.46,47.6
			c-0.78,0.79-1.81,1.48-2.27,2.43c-3.23,6.65-7.72,6.5-13.44,3.12c-14.34-8.48-29.01-16.41-43.2-25.13
			c-17.53-10.77-34.72-22.11-51.7-32.97c0.99-17.23,6.02-34.12,3.98-51.42c-0.89-0.09-1.79-0.17-2.69-0.26
			c-2.09,16.35-4.19,32.7-6.32,49.34c-5.42-3.33-11.87-7.04-17.97-11.26c-1.11-0.77-1.41-3.67-1.09-5.41
			c2.5-13.4,5.46-26.71,7.78-40.14c0.79-4.6,0.12-9.44,0.12-14.18c-0.73-0.04-1.47-0.08-2.2-0.12c-4.01,18.37-8.02,36.73-12.2,55.93
			c-4.49-3.27-9.08-6.6-13.66-9.94c-0.03-0.05-0.06-0.1-0.07-0.15c1.04-1.1,2.57-2.04,2.97-3.34c0.64-2.07,0.34-4.41,0.71-6.59
			c2.54-14.88,5.23-29.74,7.65-44.64c0.44-2.69-0.2-5.55-0.34-8.33c-0.75-0.02-1.51-0.04-2.26-0.06
			c-2.98,14.03-6.07,28.03-8.87,42.1c-1.38,6.92-3.15,13.95,0.14,20.86c-0.02,0.02-0.04,0.04-0.06,0.06c0,0,0.01,0.02,0.03,0.03
			c0.03,0.04,0.08,0.1,0.11,0.13c-7.04-5.54-14.07-11.08-21.12-16.63c0-0.09,0-0.18,0-0.27c1.01-1.19,2.56-2.27,2.79-3.57
			c2.27-13.41,4.47-26.84,6.35-40.31c1.07-7.66,1.52-15.4,2.25-23.1c-0.68-0.12-1.37-0.24-2.05-0.36c-0.56,1.22-1.37,2.39-1.63,3.67
			c-2.64,13.14-5.75,26.23-7.57,39.49c-1.08,7.92-0.19,16.1-0.14,24.18c-0.05,0.05-0.1,0.11-0.14,0.16c0,0,0.01,0.01,0.03,0.03
			c0.04,0.05,0.11,0.15,0.11,0.15c-6.1-5.95-12.3-11.8-18.22-17.92c-1-1.03-1.38-3.32-1.08-4.85c3.41-17.91,7.04-35.78,10.54-53.67
			c0.79-4.03,1.33-8.12,0.93-12.39c-9.09,20.29-13.29,41.85-16.88,64.44c-4.15-4.58-8.93-7.85-10.66-12.31
			c-1.69-4.36-1.14-10.12-0.06-14.91c3.63-15.98,7.96-31.8,11.98-47.69c0.47-1.88,0.66-3.84,0.04-5.98
			c-8.93,19.64-16.2,39.7-17.42,62.86c-3.57-5.14-6.77-9.3-9.39-13.8c-0.96-1.66-1.1-4.27-0.63-6.21
			c4.94-20.22,10.09-40.39,15.15-60.58c0.71-2.81,1.24-5.67,1.13-8.7c-10.53,20.58-14.85,43.12-20.33,65.29
			c-0.51,0.09-1.02,0.19-1.53,0.28c-2.8-9.58-6.67-18.99-8.22-28.76c-4.53-28.73,3.38-54.74,20.06-78.09
			c14.68-20.54,35.12-31.29,60.21-33.48c19.85-1.74,39.42-0.04,58.05,6.96c18.24,6.86,35.88,15.13,49.44,30.05
			c4.12,4.53,8.24,3.79,13.52-0.71c21.25-18.1,44.39-33.4,70.45-43.53c23.55-9.17,47.71-8.55,70.83,1.38
			C388.909,122.081,401.699,136.131,409.249,154.871z M275.729,331.471c4.64-1.12,5.99-4.87,4.49-9.46c-0.29-0.88-0.76-2.3-0.36-2.7
			c3.64-3.7,1.49-6.95-0.32-10.5c-5.33-10.43-10.43-20.97-15.68-31.43c-3.01-6.01-6.13-11.97-9.3-18.13
			c15.37-16.64,10.36-33.29-2.85-45.4c-12.2-11.17-29.42-8.6-37.97,2.98c-6.31,8.54-7.76,18.58-6.41,28.91
			c1.5,11.57,9.19,17.73,19.62,20.48c-1.11,7.33-2.26,14.02-3.12,20.74c-0.89,6.93-1.61,13.87-2.19,20.83
			c-0.53,6.25-1.19,12.53-1.05,18.78c0.2,8.58,6.95,13.51,15.35,12.02c3.78-0.67,7.69-0.72,11.47-1.42
			C256.879,335.421,266.369,333.721,275.729,331.471z M195.889,373.481c0-4.94,0-9.89,0-14.83c-0.74-0.03-1.48-0.06-2.21-0.09
			c-0.43,5.02-2.69,10.12,0.59,14.96C194.809,373.511,195.349,373.491,195.889,373.481z M176.899,371.441
			c2.68-10.74,6.62-21.31,3.91-32.55C178.509,349.661,173.769,360.131,176.899,371.441z"/>
		<path style="fill:#4D4D4D;" d="M313.269,46.661c4.98,15.62,7.13,31.74,8.86,48.36c-8.16,1.8-15.45,3.39-23.28,5.11
			c-2.37-8.86-4.49-17.86-7.22-26.67c-2-6.45-4.33-12.89-7.35-18.92c-7.96-15.93-22.29-19.11-37.31-17.59
			c-11.32,1.15-22.64,2.43-33.86,4.29c-16.79,2.79-33.66,5.45-50.18,9.47c-13.17,3.21-22.16,20.16-20.93,33.6
			c0.79,8.51,2.62,16.93,4,25.45c-5.58-0.55-11.89-1.43-18.24-1.75c-6.28-0.32-12.59-0.07-18.61-0.07
			c-1.75-9.28-3.71-18.3-5.12-27.39c-2.38-15.37-2.7-30.29,10.99-41.53c7.72-6.33,16.56-10.36,26.21-12.21
			c24.44-4.68,48.94-9.07,73.45-13.35c5.25-0.91,10.66-1.02,16-1.21c13.88-0.47,27.76-1.18,41.63-1.04
			c15.48,0.16,28.49,5.55,35.53,20.51C310.089,36.501,311.659,41.611,313.269,46.661z"/>
	</g>
	<g>
		<path d="M416.179,139.421c11.25,20.31,18.08,42.09,16.76,65.75c-1.05,18.91-5.8,36.8-13.79,54.05
			c-13.57,29.27-31.79,55.51-52.02,80.34c-11.9,14.6-25.01,28.25-38.05,41.86c-13.94,14.56-28.53,28.5-42.65,42.89
			c-5.03,5.13-9.66,10.67-14.21,16.24c-5.78,7.06-8.63,7.35-15.44,1.18c-0.72-0.65-1.98-0.69-2.97-1.06
			c-7.32-2.72-15.3-4.36-21.84-8.36c-23.99-14.68-47.45-30.23-71.22-45.26c-12.43-7.86-24.99-15.5-37.7-22.88
			c-17.64-10.25-33.57-22.55-47.95-37.03c-15.12-15.24-30.87-30.01-42.41-48.23c-13.67-21.59-22.2-45.34-19-71.18
			c5.1-41.28,23.09-74.62,63.1-92.36c5.82-2.58,12.12-4.09,17.7-5.92c-1.43-14.1-3.2-28.3-4.22-42.56
			c-1.34-18.82,8.16-31.72,23.51-41.33c12.19-7.63,25.97-9.65,39.64-12.2c13.14-2.44,26.26-5.07,39.47-7.09
			c13.41-2.06,26.88-3.97,40.39-5.02c13.27-1.03,26.65-1.5,39.95-1.12c15.9,0.46,30.43,4.78,40.76,18.35
			c6.84,8.98,10.74,19.21,13.15,29.97c3.36,14.98,6.09,30.11,9.05,45.02c10.19,2.45,21.23,4.79,32.09,7.78
			C389.599,107.141,405.609,120.321,416.179,139.421z M419.289,199.641c0.39-15.53-4.23-30.34-10.04-44.77
			c-7.55-18.74-20.34-32.79-38.63-40.64c-23.12-9.93-47.28-10.55-70.83-1.38c-26.06,10.13-49.2,25.43-70.45,43.53
			c-5.28,4.5-9.4,5.24-13.52,0.71c-13.56-14.92-31.2-23.19-49.44-30.05c-18.63-7-38.2-8.7-58.05-6.96
			c-25.09,2.19-45.53,12.94-60.21,33.48c-16.68,23.35-24.59,49.36-20.06,78.09c1.55,9.77,5.42,19.18,8.22,28.76
			c0.51-0.09,1.02-0.19,1.53-0.28c5.48-22.17,9.8-44.71,20.33-65.29c0.11,3.03-0.42,5.89-1.13,8.7
			c-5.06,20.19-10.21,40.36-15.15,60.58c-0.47,1.94-0.33,4.55,0.63,6.21c2.62,4.5,5.82,8.66,9.39,13.8
			c1.22-23.16,8.49-43.22,17.42-62.86c0.62,2.14,0.43,4.1-0.04,5.98c-4.02,15.89-8.35,31.71-11.98,47.69
			c-1.08,4.79-1.63,10.55,0.06,14.91c1.73,4.46,6.51,7.73,10.66,12.31c3.59-22.59,7.79-44.15,16.88-64.44
			c0.4,4.27-0.14,8.36-0.93,12.39c-3.5,17.89-7.13,35.76-10.54,53.67c-0.3,1.53,0.08,3.82,1.08,4.85
			c5.92,6.12,12.12,11.97,18.22,17.92c0-0.02,0-0.05,0-0.07c7.05,5.55,14.08,11.09,21.12,16.63c0.02,0.02,0.03,0.03,0.03,0.03
			c-0.02-0.03-0.03-0.07-0.04-0.1c4.58,3.34,9.17,6.67,13.66,9.94c4.18-19.2,8.19-37.56,12.2-55.93c0.73,0.04,1.47,0.08,2.2,0.12
			c0,4.74,0.67,9.58-0.12,14.18c-2.32,13.43-5.28,26.74-7.78,40.14c-0.32,1.74-0.02,4.64,1.09,5.41c6.1,4.22,12.55,7.93,17.97,11.26
			c2.13-16.64,4.23-32.99,6.32-49.34c0.9,0.09,1.8,0.17,2.69,0.26c2.04,17.3-2.99,34.19-3.98,51.42
			c16.98,10.86,34.17,22.2,51.7,32.97c14.19,8.72,28.86,16.65,43.2,25.13c5.72,3.38,10.21,3.53,13.44-3.12
			c0.46-0.95,1.49-1.64,2.27-2.43c15.84-15.84,31.91-31.48,47.46-47.6c13.11-13.58,26.32-27.16,38.25-41.75
			c20.55-25.1,39.08-51.62,52.76-81.3C414.919,235.561,418.839,217.881,419.289,199.641z M322.129,95.021
			c-1.73-16.62-3.88-32.74-8.86-48.36c-1.61-5.05-3.18-10.16-5.43-14.94c-7.04-14.96-20.05-20.35-35.53-20.51
			c-13.87-0.14-27.75,0.57-41.63,1.04c-5.34,0.19-10.75,0.3-16,1.21c-24.51,4.28-49.01,8.67-73.45,13.35
			c-9.65,1.85-18.49,5.88-26.21,12.21c-13.69,11.24-13.37,26.16-10.99,41.53c1.41,9.09,3.37,18.11,5.12,27.39
			c6.02,0,12.33-0.25,18.61,0.07c6.35,0.32,12.66,1.2,18.24,1.75c-1.38-8.52-3.21-16.94-4-25.45c-1.23-13.44,7.76-30.39,20.93-33.6
			c16.52-4.02,33.39-6.68,50.18-9.47c11.22-1.86,22.54-3.14,33.86-4.29c15.02-1.52,29.35,1.66,37.31,17.59
			c3.02,6.03,5.35,12.47,7.35,18.92c2.73,8.81,4.85,17.81,7.22,26.67C306.679,98.411,313.969,96.821,322.129,95.021z
			 M287.449,104.711c-0.95-2.88-2.01-5.18-2.46-7.6c-2.46-13.53-4.81-27.08-11.6-39.31c-3.21-5.78-7.7-10.03-14.77-9.92
			c-6.04,0.09-12.14,0.25-18.11,1.08c-22.65,3.18-45.27,6.6-67.89,10.01c-10.34,1.56-15.33,8.67-17.86,17.98
			c-2.98,10.96-0.41,21.51,3.11,31.85c0.55,1.62,2.28,3.43,3.88,4.01c22.05,7.92,43.36,17.1,60.01,33.97
			C242.169,129.811,263.769,115.271,287.449,104.711z"/>
		<path d="M280.219,322.011c1.5,4.59,0.15,8.34-4.49,9.46c-9.36,2.25-18.85,3.95-28.32,5.7c-3.78,0.7-7.69,0.75-11.47,1.42
			c-8.4,1.49-15.15-3.44-15.35-12.02c-0.14-6.25,0.52-12.53,1.05-18.78c0.58-6.96,1.3-13.9,2.19-20.83
			c0.86-6.72,2.01-13.41,3.12-20.74c-10.43-2.75-18.12-8.91-19.62-20.48c-1.35-10.33,0.1-20.37,6.41-28.91
			c8.55-11.58,25.77-14.15,37.97-2.98c13.21,12.11,18.22,28.76,2.85,45.4c3.17,6.16,6.29,12.12,9.3,18.13
			c5.25,10.46,10.35,21,15.68,31.43c1.81,3.55,3.96,6.8,0.32,10.5C279.459,319.711,279.929,321.131,280.219,322.011z"/>
		<path d="M195.889,358.651c0,4.94,0,9.89,0,14.83c-0.54,0.01-1.08,0.03-1.62,0.04c-3.28-4.84-1.02-9.94-0.59-14.96
			C194.409,358.591,195.149,358.621,195.889,358.651z"/>
		<path d="M180.809,338.891c2.71,11.24-1.23,21.81-3.91,32.55C173.769,360.131,178.509,349.661,180.809,338.891z"/>
		<path d="M124.739,279.991c0.14,2.78,0.78,5.64,0.34,8.33c-2.42,14.9-5.11,29.76-7.65,44.64c-0.37,2.18-0.07,4.52-0.71,6.59
			c-0.4,1.3-1.93,2.24-2.97,3.34c-3.29-6.91-1.52-13.94-0.14-20.86c2.8-14.07,5.89-28.07,8.87-42.1
			C123.229,279.951,123.989,279.971,124.739,279.991z"/>
		<path d="M113.819,343.041c0.01,0.03,0.02,0.07,0.04,0.1c0,0-0.01-0.01-0.03-0.03c-0.03-0.03-0.08-0.09-0.11-0.13
			C113.749,343.001,113.789,343.021,113.819,343.041z"/>
		<path d="M113.819,343.041c-0.03-0.02-0.07-0.04-0.1-0.06c-0.02-0.01-0.03-0.03-0.03-0.03c0.02-0.02,0.04-0.04,0.06-0.06
			C113.759,342.941,113.789,342.991,113.819,343.041z"/>
		<path d="M102.049,258.871c0.68,0.12,1.37,0.24,2.05,0.36c-0.73,7.7-1.18,15.44-2.25,23.1c-1.88,13.47-4.08,26.9-6.35,40.31
			c-0.23,1.3-1.78,2.38-2.79,3.57c-0.05-8.08-0.94-16.26,0.14-24.18c1.82-13.26,4.93-26.35,7.57-39.49
			C100.679,261.261,101.489,260.091,102.049,258.871z"/>
		<path d="M92.709,326.481c0,0.02,0,0.05,0,0.07c0,0-0.07-0.1-0.11-0.15C92.639,326.421,92.669,326.451,92.709,326.481z"/>
		<path d="M92.709,326.211c0,0.09,0,0.18,0,0.27c-0.04-0.03-0.07-0.06-0.11-0.08c-0.02-0.02-0.03-0.03-0.03-0.03
			C92.609,326.321,92.659,326.261,92.709,326.211z"/>
	</g>
</g>
</svg>